<svg viewBox="0 0 48 48" xmlns="http://www.w3.org/2000/svg" aria-label="VoiceLink logo">
  <defs>
    <linearGradient id="vl-gradient" x1="0" y1="0" x2="1" y2="1">
      <stop offset="0%" stop-color="#0ea5e9" />
      <stop offset="100%" stop-color="#06b6d4" />
    </linearGradient>
  </defs>
  <rect x="2" y="2" width="44" height="44" rx="12" fill="url(#vl-gradient)" opacity="0.12" />
  <g stroke="url(#vl-gradient)" stroke-width="2.5" stroke-linecap="round" stroke-linejoin="round" fill="none">
    <path d="M12 24c0-6.627 5.373-12 12-12 3.314 0 6 2.686 6 6v12c0 3.314-2.686 6-6 6-6.627 0-12-5.373-12-12z" />
    <path d="M24 18c2.5 0 4.5 2 4.5 4.5S26.5 27 24 27s-4.5-2-4.5-4.5" />
    <path d="M30 20c3 0 6 2 6 6" opacity="0.8" />
    <path d="M30 16c4.5 0 10 3.5 10 10" opacity="0.5" />
  </g>
</svg>
